<?xml version="1.0" standalone="no"?>
<!DOCTYPE svg PUBLIC "-//W3C//DTD SVG 20010904//EN"
 "http://www.w3.org/TR/2001/REC-SVG-20010904/DTD/svg10.dtd">
<svg version="1.0" xmlns="http://www.w3.org/2000/svg"
 width="1536.000000pt" height="1024.000000pt" viewBox="0 0 1536.000000 1024.000000"
 preserveAspectRatio="xMidYMid meet">

<g transform="translate(0.000000,1024.000000) scale(0.100000,-0.100000)"
fill="#000000" stroke="none">
<path d="M6525 6766 c-43 -19 -82 -68 -89 -113 -27 -178 -46 -287 -52 -292 -3
-3 -219 -8 -481 -11 l-475 -5 -29 -33 c-24 -26 -29 -41 -29 -82 0 -41 5 -56
29 -82 l29 -33 585 -5 585 -5 39 -31 c92 -75 76 -206 -31 -255 -39 -17 -80
-19 -694 -19 -721 0 -694 2 -726 -64 -20 -43 -20 -78 -1 -116 31 -60 27 -60
556 -60 468 0 484 -1 525 -21 60 -29 88 -76 82 -140 -4 -34 -13 -58 -29 -76
-47 -51 -64 -53 -399 -53 -365 0 -380 -3 -380 -85 0 -80 20 -85 333 -85 219 0
267 -2 277 -15 9 -11 9 -30 1 -82 -6 -37 -24 -155 -41 -261 -34 -218 -37 -278
-14 -310 38 -55 -34 -52 1359 -52 1408 0 1323 -4 1388 58 33 31 110 181 417
817 120 248 289 594 375 770 232 473 295 610 295 639 0 15 -7 40 -15 56 -32
63 5 60 -884 60 l-810 0 -46 -57 c-24 -32 -159 -211 -299 -398 l-254 -340 616
-5 617 -5 3 -21 c3 -21 -144 -157 -523 -484 -60 -52 -195 -169 -300 -261 -244
-212 -686 -592 -749 -644 l-49 -40 -120 -3 c-66 -2 -123 0 -129 6 -11 11 -18
3 277 341 126 146 292 336 368 423 l137 158 -464 0 c-504 0 -496 -1 -496 54 0
28 3 32 195 261 83 99 299 358 480 575 180 217 337 405 348 418 l20 22 -649 0
c-517 -1 -655 -3 -679 -14z"/>
<path d="M6499 4222 c-94 -31 -202 -121 -244 -201 -58 -114 -10 -249 112 -311
42 -22 61 -25 148 -25 91 0 106 3 165 31 245 117 292 378 88 489 -69 38 -184
45 -269 17z"/>
<path d="M8197 4230 c-59 -15 -116 -48 -169 -98 -69 -64 -99 -119 -105 -192
-7 -78 15 -136 69 -185 62 -56 99 -69 208 -69 86 -1 101 2 160 30 135 64 220
173 220 282 0 139 -103 231 -265 238 -44 2 -97 -1 -118 -6z"/>
</g>
</svg>
